<?xml version="1.0" encoding="iso-8859-1"?>
<!-- Generator: Adobe Illustrator 19.0.0, SVG Export Plug-In . SVG Version: 6.00 Build 0)  -->
<svg version="1.1" id="Layer_1" xmlns="http://www.w3.org/2000/svg" xmlns:xlink="http://www.w3.org/1999/xlink" x="0px" y="0px"
	 viewBox="0 0 396 396" style="enable-background:new 0 0 396 396;" xml:space="preserve">
<g>
	<g>
		<g>
			<path d="M396,158c0-0.4,0-0.8,0-0.8L382,42.8c-1.6-12-12-20.8-24-20.8H38.4c-12,0-22,8.8-24,20.8L0,156.8c0,0.4,0,0.8,0,1.2
				c0,19.2,13.6,35.6,32,39.2V310h-0.4c-9.6,0-18.8,6-22,14.8l-6.8,16c-3.2,7.2-2.4,15.6,2,22.4c4.4,6.8,12,10.8,20,10.8h346.4
				c8,0,15.6-4,20-10.4c4.4-6.4,5.6-14.8,2.4-22.8l-6.4-15.6c-3.2-8-10.8-13.6-19.2-14.8V196C384.4,190.8,396,175.6,396,158z
				 M372,331.6l6.8,15.6c1.2,2.4,0.8,4.8-0.8,7.2c-1.6,2.4-4,3.6-6.8,3.6H24.8c-2.8,0-5.2-1.2-6.8-3.6c-1.6-2.4-1.6-4.8-0.8-7.2
				l6.8-16c1.2-2.8,4.4-4.8,7.2-4.8h333.2C367.6,326.4,370.8,328.4,372,331.6z M120,262h8v48H48V198h4c13.2,0,24.8-6.4,32-16
				c7.2,9.6,18.8,16,32,16h12v48h-8c-4.4,0-8,3.6-8,8C112,258.4,115.6,262,120,262z M256,262v48H144v-48H256z M144,246v-51.6
				c6.4-2.8,12-6.8,16-12.4c7.2,9.6,18.8,16,32,16h12c13.2,0,24.8-6.4,32-16c4.8,6.8,12,11.6,20,14v50H144z M316,246h-44v-48h8
				c13.2,0,24.8-6.4,32-16c7.2,9.6,18.8,16,32,16h8v112h-80v-48h44c4.4,0,8-3.6,8-8C324,249.6,320.4,246,316,246z M356,182h-12
				c-13.2,0-24-10.8-24-24c0-4.4-3.6-8-8-8c-4.4,0-8,3.6-8,8c0,13.2-10.8,24-24,24h-12c-13.2,0-24-10.8-24-24c0-4.4-3.6-8-8-8
				c-4.4,0-8,3.6-8,8c0,13.2-10.8,24-24,24h-12c-13.2,0-24-10.8-24-24c0-4.4-3.6-8-8-8c-4.4,0-8,3.6-8,8c0,13.2-10.8,24-24,24h-12
				c-13.2,0-24-10.8-24-24c0-4.4-3.6-8-8-8c-4.4,0-8,3.6-8,8c0,13.2-10.8,24-24,24H40c-13.2,0-23.6-10.4-24-23.6L30.4,45.2
				c0.8-4,4-7.2,8-7.2H358c4,0,7.6,3.2,8,6.8l14,113.6C379.6,171.6,369.2,182,356,182z"/>
			<path d="M88,246H76c-4.4,0-8,3.6-8,8c0,4.4,3.6,8,8,8h12c4.4,0,8-3.6,8-8C96,249.6,92.4,246,88,246z"/>
		</g>
	</g>
</g>
<g>
</g>
<g>
</g>
<g>
</g>
<g>
</g>
<g>
</g>
<g>
</g>
<g>
</g>
<g>
</g>
<g>
</g>
<g>
</g>
<g>
</g>
<g>
</g>
<g>
</g>
<g>
</g>
<g>
</g>
</svg>
