<?xml version="1.0" encoding="iso-8859-1"?>
<!-- Generator: Adobe Illustrator 19.0.0, SVG Export Plug-In . SVG Version: 6.00 Build 0)  -->
<svg version="1.1" id="Capa_1" xmlns="http://www.w3.org/2000/svg" xmlns:xlink="http://www.w3.org/1999/xlink" x="0px" y="0px"
	 viewBox="0 0 490 490" style="enable-background:new 0 0 490 490;" xml:space="preserve">
<g>
	<path d="M467.031,43.707H22.969C10.336,43.707,0,54.043,0,66.676v273.073c0,12.633,10.336,22.969,22.969,22.969h183.75v52.951
		h-69.863v30.625h216.289v-30.625h-69.863v-52.951h183.75c12.633,0,22.969-10.336,22.969-22.969V66.676
		C490,54.043,479.664,43.707,467.031,43.707z M459.375,332.092H30.625V74.332h428.75V332.092z"/>
	<polygon points="203.967,233.686 128.362,203.704 203.967,174.799 203.967,144.069 95.584,190.979 95.584,217.073 203.967,264.199 
			"/>
	<polygon points="275.894,121.422 253.135,121.422 213.986,284.902 236.312,284.902 	"/>
	<polygon points="394.417,191.195 285.928,144.286 285.928,174.589 361.638,204.026 285.928,233.791 285.928,264.311 
		394.417,217.073 	"/>
</g>
<g>
</g>
<g>
</g>
<g>
</g>
<g>
</g>
<g>
</g>
<g>
</g>
<g>
</g>
<g>
</g>
<g>
</g>
<g>
</g>
<g>
</g>
<g>
</g>
<g>
</g>
<g>
</g>
<g>
</g>
</svg>
