<svg width="415" height="270" viewBox="0 0 415 270" fill="none" xmlns="http://www.w3.org/2000/svg">
<path d="M145.339 268.648L13.0433 160.648C8.6727 157.08 11.1956 150 16.8376 150H265.867C267.249 150 268.59 150.478 269.661 151.352L401.957 259.352C406.327 262.92 403.804 270 398.162 270H149.133C147.751 270 146.41 269.522 145.339 268.648Z" fill="#F4C430" fill-opacity="0.4"/>
<path d="M145.339 218.648L13.0433 110.648C8.6727 107.08 11.1956 100 16.8376 100H265.867C267.249 100 268.59 100.478 269.661 101.352L401.957 209.352C406.327 212.92 403.804 220 398.162 220H149.133C147.751 220 146.41 219.522 145.339 218.648Z" fill="#F4C430" fill-opacity="0.6"/>
<path d="M145.339 168.648L13.0433 60.6479C8.6727 57.08 11.1956 50 16.8376 50H265.867C267.249 50 268.59 50.4776 269.661 51.3521L401.957 159.352C406.327 162.92 403.804 170 398.162 170H149.133C147.751 170 146.41 169.522 145.339 168.648Z" fill="#F4C430" fill-opacity="0.8"/>
<path d="M145.339 118.648L13.0433 10.6479C8.6727 7.07998 11.1956 0 16.8376 0H265.867C267.249 0 268.59 0.477634 269.661 1.3521L401.957 109.352C406.327 112.92 403.804 120 398.162 120H149.133C147.751 120 146.41 119.522 145.339 118.648Z" fill="#F4C430"/>
</svg>
