<svg width="500" height="471" viewBox="0 0 500 471" fill="none" xmlns="http://www.w3.org/2000/svg">
<rect width="500" height="470.848" rx="30" fill="url(#paint0_linear_15_94)"/>
<path d="M188.339 368.648L56.0433 260.648C51.6727 257.08 54.1956 250 59.8376 250H308.867C310.249 250 311.59 250.478 312.661 251.352L444.957 359.352C449.327 362.92 446.804 370 441.162 370H192.133C190.751 370 189.41 369.522 188.339 368.648Z" fill="#F4C430" fill-opacity="0.4"/>
<path d="M188.339 318.648L56.0433 210.648C51.6727 207.08 54.1956 200 59.8376 200H308.867C310.249 200 311.59 200.478 312.661 201.352L444.957 309.352C449.327 312.92 446.804 320 441.162 320H192.133C190.751 320 189.41 319.522 188.339 318.648Z" fill="#F4C430" fill-opacity="0.6"/>
<path d="M188.339 268.648L56.0433 160.648C51.6727 157.08 54.1956 150 59.8376 150H308.867C310.249 150 311.59 150.478 312.661 151.352L444.957 259.352C449.327 262.92 446.804 270 441.162 270H192.133C190.751 270 189.41 269.522 188.339 268.648Z" fill="#F4C430" fill-opacity="0.8"/>
<path d="M188.339 218.648L56.0433 110.648C51.6727 107.08 54.1956 100 59.8376 100H308.867C310.249 100 311.59 100.478 312.661 101.352L444.957 209.352C449.327 212.92 446.804 220 441.162 220H192.133C190.751 220 189.41 219.522 188.339 218.648Z" fill="#F4C430"/>
<defs>
<linearGradient id="paint0_linear_15_94" x1="0" y1="0" x2="500" y2="471" gradientUnits="userSpaceOnUse">
<stop stop-color="#6230F4"/>
<stop offset="0.515625" stop-color="#3060F4"/>
<stop offset="1" stop-color="#30C2F4"/>
</linearGradient>
</defs>
</svg>
