<?xml version="1.0" encoding="iso-8859-1"?>
<!-- Generator: Adobe Illustrator 19.0.0, SVG Export Plug-In . SVG Version: 6.00 Build 0)  -->
<svg version="1.1" id="Layer_1" xmlns="http://www.w3.org/2000/svg" xmlns:xlink="http://www.w3.org/1999/xlink" x="0px" y="0px"
	 viewBox="0 0 491.54 491.54" style="enable-background:new 0 0 491.54 491.54;" xml:space="preserve">
<g>
	<g>
		<path d="M0.01,0v184.32h266.24V0H0.01z M226.021,20.48L133.13,91.01L40.247,20.48H226.021z M20.49,31.201l64.93,49.302
			l-64.93,68.022V31.201z M34.178,163.84l67.654-70.875l31.298,23.765l31.296-23.763l67.655,70.873H34.178z M245.77,148.526
			l-64.932-68.019l64.932-49.302V148.526z"/>
	</g>
</g>
<g>
	<g>
		<path d="M358.41,224.144V137.02h-20.48v17.967c-76.116,74.093-150.349,71.001-174.08,67.607v-7.554H71.69
			c-39.525,0-71.68,32.16-71.68,71.68c0,35.801,26.415,65.474,60.764,70.759L92.45,463.01c3.125,10.28,10.065,18.72,19.54,23.78
			c5.91,3.15,12.36,4.75,18.87,4.75c3.935,0,7.89-0.59,11.76-1.76c11.84-3.61,20.755-11.87,25.095-23.26
			c4.665-12.25,3.145-26.63-4.065-38.47c-19.533-32.074-22.692-53.324-21.531-69.65h21.731v-2.924
			c23.368-4.056,97.759-9.378,174.08,64.879v17.956h20.48v-87.124c30.659-4.929,54.18-31.489,54.18-63.516
			C412.59,255.643,389.069,229.074,358.41,224.144z M146.16,438.71c3.94,6.47,4.845,14.14,2.415,20.52
			c-1.44,3.78-4.68,8.75-11.925,10.95c-5.03,1.54-10.365,1.01-15.02-1.46c-4.65-2.48-8.055-6.63-9.575-11.63L82.436,358.4h39.193
			C120.326,383.771,128.101,409.047,146.16,438.71z M143.37,337.92H71.69c-28.23,0-51.2-22.97-51.2-51.2
			c0-28.23,22.97-51.2,51.2-51.2h71.68V337.92z M337.93,392.57c-74.292-63.853-145.466-61.991-174.08-57.802v-91.553
			c5.444,0.661,12.374,1.215,20.705,1.215c35.069,0,93.218-9.847,153.375-61.731V392.57z M358.41,330.272v-85.214
			c19.284,4.642,33.7,21.923,33.7,42.612C392.11,308.35,377.694,325.63,358.41,330.272z"/>
	</g>
</g>
<g>
	<g>
		<rect x="440.33" y="276.48" width="51.2" height="20.48"/>
	</g>
</g>
<g>
	<g>
		<rect x="411.859" y="207.674" transform="matrix(0.7071 -0.7072 0.7072 0.7071 -25.9487 373.1883)" width="51.2" height="20.48"/>
	</g>
</g>
<g>
	<g>
		
			<rect x="427.227" y="329.887" transform="matrix(0.7071 -0.7071 0.7071 0.7071 -123.2361 413.4555)" width="20.48" height="51.2"/>
	</g>
</g>
<g>
</g>
<g>
</g>
<g>
</g>
<g>
</g>
<g>
</g>
<g>
</g>
<g>
</g>
<g>
</g>
<g>
</g>
<g>
</g>
<g>
</g>
<g>
</g>
<g>
</g>
<g>
</g>
<g>
</g>
</svg>
