<?xml version="1.0" encoding="iso-8859-1"?>
<!-- Generator: Adobe Illustrator 16.0.0, SVG Export Plug-In . SVG Version: 6.00 Build 0)  -->
<!DOCTYPE svg PUBLIC "-//W3C//DTD SVG 1.1//EN" "http://www.w3.org/Graphics/SVG/1.1/DTD/svg11.dtd">
<svg version="1.1" id="Capa_1" xmlns="http://www.w3.org/2000/svg" xmlns:xlink="http://www.w3.org/1999/xlink" x="0px" y="0px"
	 width="389.406px" height="389.406px" viewBox="0 0 389.406 389.406" style="enable-background:new 0 0 389.406 389.406;"
	 xml:space="preserve">
<g>
	<g>
		<g>
			<path d="M108.838,144.435H89.272c-0.877,0-1.588,0.711-1.588,1.589V153c0,0.878,0.711,1.589,1.588,1.589h11.002v55.399
				c0,0.877,0.711,1.589,1.588,1.589h6.977c0.877,0,1.588-0.711,1.588-1.589v-63.965
				C110.426,145.146,109.715,144.435,108.838,144.435z"/>
			<path d="M147.228,144.435c-8.545,0-15.563,3.095-20.295,8.949c-4.717,5.836-7.107,14.105-7.107,24.581
				c0,10.5,2.391,18.791,7.105,24.642c4.732,5.869,11.75,8.973,20.297,8.973c8.572,0,15.609-3.103,20.355-8.97
				c4.73-5.852,7.131-14.142,7.131-24.645c0-10.477-2.4-18.747-7.131-24.583C162.838,147.529,155.799,144.435,147.228,144.435z
				 M147.228,201.423c-11.445,0-17.248-7.894-17.248-23.459c0-15.511,5.803-23.375,17.248-23.375c11.5,0,17.332,7.865,17.332,23.375
				C164.56,193.531,158.728,201.423,147.228,201.423z"/>
			<path d="M216.963,175.472c3.611-3.255,5.504-7.658,5.504-12.867c0-11.208-8.312-18.17-21.692-18.17
				c-13.434,0-21.778,6.962-21.778,18.17c0,5.209,1.893,9.612,5.504,12.867c-5.303,3.586-8.189,9.041-8.189,15.585
				c0,12.657,9.373,20.52,24.465,20.52c15.037,0,24.381-7.862,24.381-20.52C225.154,184.513,222.266,179.058,216.963,175.472z
				 M200.773,154.588c4.309,0,11.541,1.062,11.541,8.184c0,7.268-7.232,8.353-11.541,8.353c-4.343,0-11.625-1.085-11.625-8.353
				C189.148,155.652,196.432,154.588,200.773,154.588z M200.773,201.423c-5.347,0-14.313-1.369-14.313-10.534
				c0-6.108,5.186-9.611,14.229-9.611c9.094,0,14.311,3.534,14.311,9.695C215,200.065,206.086,201.423,200.773,201.423z"/>
			<path d="M254.15,144.435c-8.545,0-15.563,3.095-20.295,8.949c-4.718,5.836-7.107,14.105-7.107,24.581
				c0,10.5,2.391,18.791,7.107,24.642c4.729,5.869,11.747,8.973,20.295,8.973c8.57,0,15.609-3.103,20.354-8.97
				c4.732-5.852,7.131-14.142,7.131-24.645c0-10.477-2.396-18.747-7.131-24.583C269.76,147.529,262.721,144.435,254.15,144.435z
				 M254.15,201.423c-11.445,0-17.248-7.894-17.248-23.459c0-15.511,5.803-23.375,17.248-23.375
				c11.502,0,17.332,7.865,17.332,23.375C271.482,193.531,265.652,201.423,254.15,201.423z"/>
			<path d="M350.346,92.458h-6.502l-3.1,18.445h6.504c5.256,0,10.227-4.129,11.08-9.204
				C359.184,96.604,355.602,92.458,350.346,92.458z"/>
			<path d="M386.162,93.852L341.203,48.89c-4.324-4.323-11.336-4.323-15.66,0l-9.717,9.716H29.73C13.337,58.606,0,71.943,0,88.337
				v180.69c0,16.395,13.113,29.73,29.23,29.73h108.18l-11.775,26.495c-1.811,4.07-1.438,8.779,0.99,12.517
				c2.428,3.735,6.58,5.988,11.035,5.988h94c0.006,0,0.014-0.001,0.02,0c7.27,0,13.16-5.893,13.16-13.16
				c0-2.168-0.524-4.214-1.453-6.018l-11.477-25.822h107.178c16.67,0,30.232-13.337,30.232-29.73V126.355l16.842-16.844
				C390.488,105.186,390.488,98.177,386.162,93.852z M306.709,87.28c0.107-0.646,0.721-1.17,1.367-1.17h4.008
				c0.646,0,1.082,0.524,0.973,1.17l-1.863,11.101h12.75l1.863-11.101c0.109-0.646,0.723-1.17,1.367-1.17h4.008
				c0.646,0,1.082,0.524,0.975,1.17l-4.838,28.804c-0.107,0.646-0.723,1.17-1.367,1.17h-4.008c-0.646,0-1.082-0.524-0.975-1.17
				l1.906-11.354h-12.748l-1.908,11.354c-0.107,0.646-0.721,1.17-1.365,1.17h-4.01c-0.646,0-1.082-0.524-0.975-1.17L306.709,87.28z
				 M157.91,317.439l8.303-18.68h36.896l8.304,18.68H157.91z M343,269.029c0,1.978-1.645,3.41-3.912,3.41H29.23
				c-1.346,0-2.91-1.489-2.91-3.41V88.337c0-1.881,1.529-3.411,3.41-3.411h259.777l-8.926,8.926c-4.324,4.324-4.324,11.333,0,15.658
				l44.961,44.962c2.164,2.162,4.996,3.243,7.83,3.243c2.832,0,5.666-1.081,7.83-3.243l1.797-1.796L343,269.029L343,269.029z
				 M364.676,101.701c-1.438,8.575-9.736,15.554-18.494,15.554H334.5c-0.646,0-1.08-0.524-0.973-1.17l4.838-28.804
				c0.108-0.646,0.721-1.17,1.367-1.17h11.68C360.17,86.11,366.119,93.103,364.676,101.701z"/>
		</g>
	</g>
</g>
<g>
</g>
<g>
</g>
<g>
</g>
<g>
</g>
<g>
</g>
<g>
</g>
<g>
</g>
<g>
</g>
<g>
</g>
<g>
</g>
<g>
</g>
<g>
</g>
<g>
</g>
<g>
</g>
<g>
</g>
</svg>
