<?xml version="1.0" encoding="iso-8859-1"?>
<!-- Generator: Adobe Illustrator 19.0.0, SVG Export Plug-In . SVG Version: 6.00 Build 0)  -->
<svg version="1.1" id="Layer_1" xmlns="http://www.w3.org/2000/svg" xmlns:xlink="http://www.w3.org/1999/xlink" x="0px" y="0px"
	 viewBox="0 0 496 496" style="enable-background:new 0 0 496 496;" xml:space="preserve">
<g>
	<g>
		<g>
			<path d="M347.76,240H368c13.232,0,24-10.768,24-24v-8.64c27.088-3.904,48-27.208,48-55.36c0-28.288-21.104-51.68-48.376-55.416
				C387.792,42.696,342.84,0,288,0h-80c-54.84,0-99.792,42.696-103.624,96.584C77.104,100.32,56,123.712,56,152
				c0,30.88,25.128,56,56,56h8v-48v-56c0-48.52,39.48-88,88-88h80c48.52,0,88,39.48,88,88v56v40v8v8c0,4.408-3.584,8-8,8h-9.32
				c10.944-18.856,17.32-40.672,17.32-64c0-70.576-57.424-128-128-128S120,89.424,120,160c0,54.048,33.728,100.28,81.2,119.016
				C135.744,299.08,88,360.056,88,432v64h320v-64c0-71.944-47.744-132.92-113.2-152.984C315.688,270.768,333.904,257.24,347.76,240z
				 M392,160h16v-16h-16v-31.192c18.232,3.712,32,19.872,32,39.192s-13.768,35.48-32,39.192V160z M104,144H88v16h16v31.192
				C85.768,187.48,72,171.32,72,152s13.768-35.48,32-39.192V144z M192.656,299.096l41.864,35.888l-46.464,29.048l-19.504-52.016
				C176.12,306.984,184.176,302.64,192.656,299.096z M210.32,293.168C222.352,289.904,234.944,288,248,288
				c13.056,0,25.648,1.904,37.68,5.176L248,325.464L210.32,293.168z M201.136,480H104v-48c0-44.064,19.944-83.52,51.224-109.952
				l24.72,65.92L200,375.432V392h14.672L201.136,480z M217.32,480l1.736-11.256l55.064-18.352L278.672,480H217.32z M221.792,450.976
				l4.552-29.608l41.48-11.856l3.824,24.84L221.792,450.976z M280,376h-17.328l2.704,17.568l-36.352,10.384L233.328,376H216v-10.56
				l32-20l32,20V376z M392,432v48h-97.136l-13.536-88H296v-16.568l20.056,12.536l24.72-65.92C372.056,348.48,392,387.936,392,432z
				 M303.344,299.096c8.48,3.544,16.536,7.888,24.104,12.92l-19.504,52.016l-46.464-29.048L303.344,299.096z M248.008,272
				C186.24,272,136,221.76,136,160S186.24,48,248,48s112,50.24,112,112c0,23.792-7.512,45.84-20.216,64H319.76l13.088-13.088
				l-13.96-13.96c2.176-4.16,3.976-8.488,5.384-12.952H344v-48h-19.728c-1.408-4.464-3.2-8.792-5.384-12.952l13.96-13.96
				l-33.936-33.944l-13.96,13.96c-4.16-2.176-8.496-3.976-12.952-5.376V64h-48v19.728c-4.464,1.408-8.8,3.2-12.952,5.376
				l-13.96-13.96l-33.936,33.944l13.96,13.96c-2.176,4.16-3.976,8.488-5.384,12.952H152v48h19.728
				c1.408,4.464,3.2,8.792,5.384,12.952l-13.96,13.96l33.936,33.944l13.976-13.976c1.608,0.832,3.368,1.432,5.04,2.16
				C216.664,245.784,227.12,256,240,256h16c10.416,0,19.216-6.712,22.528-16h15.536l4.856,4.848l4.848-4.848h22.472
				C306.032,259.76,278.432,272,248.008,272z M310.232,210.92l-11.312,11.32l-11.496-11.496l-5.4,3.4
				c-2.152,1.352-4.424,2.56-6.784,3.664C270.864,211.888,263.904,208,256,208h-16c-7.904,0-14.864,3.888-19.24,9.8
				c-2.36-1.104-4.632-2.312-6.784-3.664l-5.4-3.4l-11.496,11.496l-11.312-11.32l11.496-11.496l-3.408-5.408
				c-3.848-6.12-6.616-12.776-8.216-19.792L184.224,168H168v-16h16.224l1.416-6.224c1.6-7.008,4.368-13.672,8.216-19.792
				l3.408-5.408l-11.496-11.496l11.312-11.32l11.496,11.496l5.408-3.4c6.128-3.856,12.784-6.624,19.792-8.216L240,96.232V80h16
				v16.232l6.224,1.416c7.008,1.592,13.664,4.36,19.792,8.216l5.408,3.4l11.496-11.496l11.312,11.32l-11.496,11.496l3.408,5.408
				c3.848,6.12,6.616,12.776,8.216,19.792l1.416,6.216H328v16h-16.224l-1.416,6.224c-1.6,7.008-4.368,13.672-8.216,19.792
				l-3.408,5.408L310.232,210.92z M264,232c0,4.408-3.584,8-8,8h-16c-4.416,0-8-3.592-8-8s3.584-8,8-8h16
				C260.416,224,264,227.592,264,232z"/>
			<path d="M248,120c-22.056,0-40,17.944-40,40c0,22.056,17.944,40,40,40c22.056,0,40-17.944,40-40C288,137.944,270.056,120,248,120
				z M248,184c-13.232,0-24-10.768-24-24s10.768-24,24-24s24,10.768,24,24S261.232,184,248,184z"/>
		</g>
	</g>
</g>
<g>
</g>
<g>
</g>
<g>
</g>
<g>
</g>
<g>
</g>
<g>
</g>
<g>
</g>
<g>
</g>
<g>
</g>
<g>
</g>
<g>
</g>
<g>
</g>
<g>
</g>
<g>
</g>
<g>
</g>
</svg>
